<?xml version="1.0" encoding="UTF-8" standalone="no"?>
<svg
   xmlns:dc="http://purl.org/dc/elements/1.1/"
   xmlns:cc="http://creativecommons.org/ns#"
   xmlns:rdf="http://www.w3.org/1999/02/22-rdf-syntax-ns#"
   xmlns:svg="http://www.w3.org/2000/svg"
   xmlns="http://www.w3.org/2000/svg"
   viewBox="0 0 733.33331 533.33331"
   height="533.33331"
   width="733.33331"
   xml:space="preserve"
   id="svg2"
   version="1.1"><metadata
     id="metadata8"><rdf:RDF><cc:Work
         rdf:about=""><dc:format>image/svg+xml</dc:format><dc:type
           rdf:resource="http://purl.org/dc/dcmitype/StillImage" /></cc:Work></rdf:RDF></metadata><defs
     id="defs6"><clipPath
       id="clipPath18"
       clipPathUnits="userSpaceOnUse"><path
         id="path16"
         d="M 0,400 H 550 V 0 H 0 Z" /></clipPath></defs><g
     transform="matrix(1.3333333,0,0,-1.3333333,0,533.33333)"
     id="g10"><g
       id="g12"><g
         clip-path="url(#clipPath18)"
         id="g14"><g
           transform="translate(223.7,243.95)"
           id="g20"><path
             id="path22"
             style="fill:#e4f118;fill-opacity:1;fill-rule:nonzero;stroke:none"
             d="m 0,0 h -10.3 c -6.867,0 -10.317,-3.45 -10.35,-10.35 v -10.3 L 0,-20.6 Z M 81.2,-81.2 H 60.6 v -20.6 h 10.3 c 6.867,0 10.3,3.433 10.3,10.3 v 10.3" /></g><g
           transform="translate(258.35,204.7)"
           id="g24"><path
             id="path26"
             style="fill:#000000;fill-opacity:1;fill-rule:nonzero;stroke:none"
             d="m 0,0 c 0,2.067 0.733,3.833 2.2,5.3 1.467,1.467 3.233,2.2 5.3,2.2 2.067,0 3.833,-0.733 5.3,-2.2 1.467,-1.467 2.217,-3.25 2.25,-5.35 -0.033,-2.033 -0.783,-3.783 -2.25,-5.25 -1.467,-1.467 -3.217,-2.217 -5.25,-2.25 -2.133,0 -3.933,0.733 -5.4,2.2 C 0.683,-3.883 -0.033,-2.1 0,0 m 24.9,13.8 c -0.8,1.667 -2.017,2.883 -3.65,3.65 -1.5,0.767 -3.383,1.15 -5.65,1.15 l -50.25,0.05 v -23.7 c 0.933,0.333 1.9,0.633 2.9,0.9 2.167,0.5 4.483,0.75 6.95,0.75 7.867,0 14.533,-2.767 20,-8.3 5.567,-5.567 8.333,-12.267 8.3,-20.1 0.033,-2.433 -0.2,-4.733 -0.7,-6.9 -0.267,-1.133 -0.6,-2.2 -1,-3.2 v -0.05 h 24.15 v 50.2 c -0.033,2.233 -0.383,4.083 -1.05,5.55" /></g><g
           transform="translate(223.7,243.95)"
           id="g28"><path
             id="path30"
             style="fill:#108f00;fill-opacity:1;fill-rule:nonzero;stroke:none"
             d="m 0,0 v -20.6 l 50.25,-0.05 c 2.267,0 4.15,-0.383 5.65,-1.15 -0.4,1 -0.617,2.05 -0.65,3.15 0.033,2.1 0.783,3.883 2.25,5.35 1.433,1.433 3.2,2.167 5.3,2.2 2.067,0 3.833,-0.733 5.3,-2.2 1.467,-1.467 2.2,-3.233 2.2,-5.3 0,-2.067 -0.733,-3.833 -2.2,-5.3 -1.5,-1.5 -3.25,-2.25 -5.25,-2.25 -1.2,0 -2.3,0.233 -3.3,0.7 0.667,-1.467 1.017,-3.317 1.05,-5.55 v -50.2 h 20.6 v 70.9 c 0,2.2 -0.35,4.05 -1.05,5.55 C 79.383,-3.117 78.2,-1.9 76.6,-1.1 75.067,-0.367 73.167,0 70.9,0 Z" /></g><g
           transform="translate(223.7,223.35)"
           id="g32"><path
             id="path34"
             style="fill:#ff00ff;fill-opacity:1;fill-rule:nonzero;stroke:none"
             d="m 0,0 -20.65,-0.05 0.05,-70.85 c 0,-6.867 3.433,-10.3 10.3,-10.3 h 70.9 v 20.6 H 36.45 c -1.4,-3.633 -3.583,-6.933 -6.55,-9.9 -5.533,-5.533 -12.217,-8.317 -20.05,-8.35 -7.867,0 -14.583,2.783 -20.15,8.35 -5.5,5.5 -8.25,12.183 -8.25,20.05 0,7.8 2.767,14.5 8.3,20.1 3.067,3.067 6.483,5.283 10.25,6.65 z" /></g><g
           transform="translate(192.75,223.3)"
           id="g36"><path
             id="path38"
             style="fill:#ff0000;fill-opacity:1;fill-rule:nonzero;stroke:none"
             d="m 0,0 c -6.867,0 -10.3,-3.433 -10.3,-10.3 v -81.2 c 0,-6.867 3.433,-10.3 10.3,-10.3 h 81.2 c 6.867,0 10.3,3.433 10.3,10.3 l 0.05,10.35 h -70.9 c -6.867,0 -10.3,3.433 -10.3,10.3 L 10.3,0 Z" /></g><g
           transform="translate(229.5,263.9)"
           id="g40"><path
             id="path42"
             style="fill:#12d2f0;fill-opacity:1;fill-rule:nonzero;stroke:none"
             d="M 0,0 C 1.3,0.433 2.8,0.65 4.5,0.65 H 7.15 L 4.55,0.7 C 2.817,0.7 1.3,0.467 0,0" /></g><g
           transform="translate(325.55,173.1)"
           id="g44"><path
             id="path46"
             style="fill:#00ffff;fill-opacity:1;fill-rule:nonzero;stroke:none"
             d="m 0,0 v 81.2 c 0,6.867 -3.433,10.3 -10.3,10.3 l -78.6,-0.05 h -2.65 c -1.7,0 -3.2,-0.217 -4.5,-0.65 l -3.2,-1.9 c -1.7,-1.733 -2.567,-4.317 -2.6,-7.75 v -10.3 h 70.9 c 2.267,0 4.167,-0.367 5.7,-1.1 -0.467,0.933 -0.7,1.967 -0.7,3.1 0,2.067 0.733,3.833 2.2,5.3 1.5,1.5 3.283,2.25 5.35,2.25 2.067,0 3.833,-0.733 5.3,-2.2 1.467,-1.467 2.2,-3.233 2.2,-5.3 0,-2.067 -0.733,-3.833 -2.2,-5.3 -1.5,-1.5 -3.283,-2.25 -5.35,-2.25 -1.2,0 -2.283,0.25 -3.25,0.75 0.7,-1.5 1.05,-3.35 1.05,-5.55 v -70.9 h 10.3 C -3.45,-10.317 0,-6.867 0,0" /></g></g></g></g></svg>